{"title":"Crimson Rivers 2 Angels Of The Apocalypse, Xvid -Whitevegeta-","uid":4938251,"size":734793930,"categoryP":"video","categoryS":"movies","magnet":"?xt=urn:btih:bb2e8747679afbcb32576ed12bc7086368cab792&amp;dn=Crimson+Rivers+2+Angels+Of+The+Apocalypse%2C+Xvid+-Whitevegeta-&amp;tr=udp%3A%2F%2Ftracker.openbittorrent.com%3A80&amp;tr=udp%3A%2F%2Fopen.demonii.com%3A1337&amp;tr=udp%3A%2F%2Ftracker.coppersurfer.tk%3A6969&amp;tr=udp%3A%2F%2Fexodus.desync.com%3A6969","seeders":0,"leechers":1,"uploader":"whitevegeta","files":-1,"time":1244340736,"description":"With Dutch &amp; English Subs\n\nVideo\nFormaat : MPEG-4 Visual\nFormat profile : Simple@L3\nFormat settings, BVOP : Ja\nFormat settings, QPel : Nee\nFormat settings, GMC : No warppoints\nFormat settings, Matrix : Default\nCodec ID : XVID\nCodec ID/Hint : XviD\nDuration : 1h 35mn\nBitrate : 889 Kbps\nBreedte : 640 pixels\nHoogte : 272 pixels\nBeeldverhouding : 2.35\nFramerate : 25,000 fps\nResolutie : 24 bits\nColorimetry : 4:2:0\nScan type : Progressive\nBits/(Pixel*Frame) : 0.204\nStream size : 604 MiB (86%)\nGebruikte encoder-bibliotheek : XviD 1.0.0 RC4 (Hola) (UTC 2004-04-05)\n\nAudio\nFormaat : MPEG Audio\nFormat version : Version 1\nFormat profile : Layer 3\nCodec ID : 55\nCodec ID/Hint : MP3\nDuration : 1h 35mn\nBitrate-modus : Variable\nBitrate : 127 Kbps\nKanaal(en) : 2 kanalen\nSamplerate : 48,0 KHz\nResolutie : 16 bits\nVideo vertraging : 8ms\nStream size : 86,7 MiB (12%)\nAlignment : Aligned on interleaves\nInterleave, duration : 24 ms (0,60 video frame)\nInterleave, preload duration : 536 ms","torrent":{"xt":"urn:btih:bb2e8747679afbcb32576ed12bc7086368cab792","amp;dn":"Crimson+Rivers+2+Angels+Of+The+Apocalypse%2C+Xvid+-Whitevegeta-","amp;tr":["udp%3A%2F%2Ftracker.openbittorrent.com%3A80","udp%3A%2F%2Fopen.demonii.com%3A1337","udp%3A%2F%2Ftracker.coppersurfer.tk%3A6969","udp%3A%2F%2Fexodus.desync.com%3A6969"],"infoHash":"bb2e8747679afbcb32576ed12bc7086368cab792","infoHashBuffer":{"type":"Buffer","data":[187,46,135,71,103,154,251,203,50,87,110,209,43,199,8,99,104,202,183,146]},"announce":[],"urlList":[]}}